<?xml version="1.0" encoding="utf-8"?>
<!-- Generator: Adobe Illustrator 28.7.4, SVG Export Plug-In . SVG Version: 9.03 Build 55973)  -->
<svg version="1.1" id="Calque_1" xmlns="http://www.w3.org/2000/svg" xmlns:xlink="http://www.w3.org/1999/xlink" x="0px" y="0px"
	 viewBox="0 0 1024 1024" style="enable-background:new 0 0 1024 1024;" xml:space="preserve">
<style type="text/css">
	.st0{fill:#5AE0B9;}
	.st1{fill:#6FF9D4;}
	.st2{fill:url(#SVGID_1_);}
	.st3{fill:url(#SVGID_00000172411817519781813490000014121978342637859223_);}
	.st4{fill:#ECFFFD;}
	.st5{fill:#0C1428;}
	.st6{fill:#FFFFFF;}
	.st7{fill:#EAFDFB;}
	.st8{fill:#FF3D81;}
	.st9{fill:#B35047;}
	.st10{fill:#F4BF4F;}
	.st11{fill:#61C554;}
	.st12{opacity:0.61;fill:#FFFFFF;}
</style>
<path d="M619.6,566.5H125c-26.3,0-47.5-21.3-47.5-47.5V162.8c0-26.3,21.3-47.5,47.5-47.5h494.6c26.3,0,47.5,21.3,47.5,47.5V519
	C667.1,545.2,645.8,566.5,619.6,566.5z"/>
<g>
	<path class="st0" d="M788.9,679.8c56.9-36,116.7-49.2,131.4-73.4c14.8-24.2,38,125.1-90.2,183.7L777,711.9L788.9,679.8z"/>
	<path d="M827.3,800.5l-59.5-87.4l14.4-38.7l2.3-1.5c25.3-16,50.7-27.4,73.1-37.4c26.1-11.7,48.7-21.8,55.7-33.3
		c4.6-7.5,10.9-6.7,12.7-6.3c7.5,1.7,12,10.5,13.7,27c4.3,41.7-12.3,131.8-106.1,174.8L827.3,800.5z M786.1,710.8l46.9,68.8
		c23.7-11.9,43.3-27.9,58.3-47.8c13.3-17.6,22.7-37.7,28.1-59.8c6-24.6,5-44.6,2.9-54.8c-11.6,12.4-32.5,21.7-58,33.2
		c-21.2,9.5-45.1,20.2-68.7,34.8L786.1,710.8z"/>
</g>
<path class="st1" d="M858,845c-27.2,24-120.2,58.7-260.6,58.7S364.1,869,336.9,845c-27.2-24-26.1-43-25.5-77.4
	c0.4-22.7,7.2-58.4,62.1-79.2c0,0,21.9,23.2,80.7,48.5c58.8,25.3,143.6,21.5,143.6,21.5s84.3,3.8,143.1-21.5
	c58.8-25.4,80.6-48.5,80.6-48.5c49.7,21.8,61.7,56.5,62.1,79.2C884.1,802,885.2,821,858,845z"/>
<path class="st0" d="M858,845c-27.2,24-120.2,58.7-260.6,58.7S364,869,336.9,845c-27.2-24-26.1-43-25.5-77.4c0-1.7,0.1-3.5,0.2-5.4
	c1.4,18.2,6.8,32.2,25.3,48.6c27.2,24,120.2,58.7,260.5,58.7s233.4-34.7,260.6-58.7c18.4-16.2,23.8-30.2,25.3-48.1
	c0.1,1.7,0.2,3.4,0.3,5C884.1,802,885.2,821,858,845z"/>
<path d="M597.4,912.8c-80.1,0-139.4-11.2-175-20.6c-41.6-11-75-25.7-91.5-40.3c-29.6-26.2-29.2-48.3-28.6-81.7l0-2.6
	c0.3-17.3,4.2-32,11.9-44.9c11.1-18.4,29.9-32.8,56.1-42.7l5.7-2.1l4.2,4.4c0.2,0.2,21.8,22.3,77.6,46.4
	c56.2,24.2,138.7,20.8,139.5,20.8l0.4,0l0.4,0c0.8,0,82.9,3.4,139.1-20.8c55.9-24.1,77.4-46.2,77.6-46.4l4.4-4.6l5.9,2.5
	c60.1,26.3,67.3,69.9,67.6,87.4l0,2.7c0.6,33.4,1,55.5-28.7,81.7c-16.6,14.6-49.9,29.3-91.5,40.3
	C736.8,901.6,677.5,912.8,597.4,912.8z M371.5,699.1c-44.8,18.9-50.6,48.1-51,68.7l0,2.6c-0.6,32.4-0.8,47.1,22.5,67.7
	c24.7,21.8,115.6,56.4,254.5,56.4c138.9,0,229.8-34.6,254.5-56.4l0,0c23.3-20.6,23.1-35.4,22.5-67.7l0-2.7
	c-0.2-13.5-5.8-46.4-51.3-68.5c-9.5,8.3-33.7,26.6-78.7,46c-58.5,25.2-139.4,22.6-146.7,22.3c-7.3,0.3-88.7,3-147.2-22.3
	C405,725.7,380.8,707.2,371.5,699.1z"/>
<g>
	<linearGradient id="SVGID_1_" gradientUnits="userSpaceOnUse" x1="365.4921" y1="661.6758" x2="772.0311" y2="661.6758">
		<stop  offset="4.545561e-02" style="stop-color:#6FF9D4"/>
		<stop  offset="0.266" style="stop-color:#66EFC9"/>
		<stop  offset="0.6323" style="stop-color:#5DE4BD"/>
		<stop  offset="1" style="stop-color:#5AE0B9"/>
	</linearGradient>
	<path class="st2" d="M808.5,706.4c-22,24-97.4,58.7-211.1,58.7s-189.1-34.7-211.1-58.7s-21.1-43-20.7-77.4
		c0.3-22.7,6.7-44,41.4-70.7c0,0,26.7,14.7,74.3,40c47.6,25.3,116.1,29.3,116.1,29.3s68.5-4,116.1-29.3c47.6-25.4,74.3-40,74.3-40
		c34.7,26.7,41,48,41.4,70.7C829.7,663.4,830.6,682.4,808.5,706.4z"/>
	<path d="M597.4,773.3c-118.1,0-194.6-36.7-217.2-61.4c-23.7-25.8-23.3-47.5-22.9-80.4l0-2.6c0.3-22.5,5.9-47.4,44.6-77.1l4.3-3.3
		l4.7,2.6c0.3,0.1,27.2,14.9,74.2,40c43.5,23.1,106.1,27.9,112.3,28.4c6.1-0.4,68.9-5.3,112.3-28.4c47-25,73.9-39.8,74.2-40l4.7-2.6
		l4.3,3.3c38.6,29.7,44.2,54.6,44.6,77.1l0,2.7c0.5,32.9,0.8,54.6-22.9,80.4C792,736.6,715.5,773.3,597.4,773.3z M407.8,568.1
		c-27.8,22.5-33.7,40.2-34,61l0,2.6c-0.5,32-0.7,48.1,18.5,69.1c19.9,21.7,93.1,56,205.1,56c112,0,185.2-34.4,205.1-56
		c19.2-21,19-37,18.6-69l0-2.7c-0.3-20.8-6.2-38.5-34-61c-9.7,5.3-33.9,18.4-69.6,37.5c-48.7,25.9-116.6,30.1-119.5,30.3l-0.5,0
		l-0.5,0c-2.9-0.2-70.9-4.4-119.5-30.3C441.7,586.5,417.5,573.4,407.8,568.1z"/>
</g>
<g>
	
		<linearGradient id="SVGID_00000056413698372021671460000008423885241642402997_" gradientUnits="userSpaceOnUse" x1="533.9459" y1="339.9138" x2="686.7981" y2="591.7493">
		<stop  offset="4.545561e-02" style="stop-color:#6FF9D4"/>
		<stop  offset="0.266" style="stop-color:#66EFC9"/>
		<stop  offset="0.6323" style="stop-color:#5DE4BD"/>
		<stop  offset="1" style="stop-color:#5AE0B9"/>
	</linearGradient>
	<path style="fill:url(#SVGID_00000056413698372021671460000008423885241642402997_);" d="M832.3,441.3c0,10.7-1,21.2-2.9,31.4
		c-0.5,2.6-1,5.1-1.6,7.6c-19.9,82.9-104.3,141.6-230.1,141.8h-1.4c-125.7-0.2-210.1-58.9-230.1-141.8c-0.6-2.5-1.1-5-1.6-7.6
		c-1.9-10.1-2.9-20.6-2.9-31.4c0-8.2,0.7-16.2,1.9-24.2c6.7-40.9,30.9-76.7,65.3-100c43-29.2,102.1-47.4,167.4-47.6
		c0.2,0,0.5,0,0.7,0c0.2,0,0.5,0,0.7,0c65.3,0.2,124.4,18.4,167.4,47.6c34.3,23.3,58.6,59.1,65.3,100
		C831.6,425.1,832.3,433.2,832.3,441.3z"/>
	<path d="M597,269.5c0.2,0,0.5,0,0.7,0c65.3,0.2,124.4,18.4,167.4,47.6c34.3,23.3,58.6,59.1,65.3,100c1.3,7.9,2,16,2,24.2
		c0,10.7-1,21.2-2.9,31.4c-0.5,2.6-1,5.1-1.6,7.6c-19.9,82.9-104.3,141.6-230.1,141.8h-1.4c-125.7-0.2-210.1-58.9-230.1-141.8
		c-0.6-2.5-1.1-5-1.6-7.6c-1.9-10.1-2.9-20.6-2.9-31.4c0-8.2,0.7-16.2,1.9-24.2c6.7-40.9,30.9-76.7,65.3-100
		c43-29.2,102.1-47.4,167.4-47.6C596.5,269.5,596.7,269.5,597,269.5 M597,253.1c-0.3,0-0.6,0-1.1,0c-66.2,0.3-128.8,18.2-176.3,50.4
		c-19.1,12.9-35.1,29.1-47.5,47.9c-12.8,19.4-21.1,40.6-24.8,63c-1.4,8.8-2.2,17.8-2.2,26.8c0,11.7,1.1,23.3,3.2,34.4
		c0.5,2.7,1.1,5.5,1.8,8.4c11,45.8,39.5,84.5,82.5,111.9c43.4,27.7,100,42.4,163.5,42.5h1.4c63.6-0.1,120.1-14.8,163.5-42.5
		c42.9-27.4,71.5-66.1,82.5-111.9c0.7-2.8,1.3-5.6,1.8-8.4c2.1-11.1,3.2-22.7,3.2-34.4c0-8.9-0.7-17.9-2.2-26.8
		c-3.6-22.5-12-43.7-24.8-63c-12.4-18.9-28.4-35-47.5-47.9c-47.5-32.2-110-50.1-176.2-50.4C597.6,253.1,597.2,253.1,597,253.1
		L597,253.1z"/>
</g>
<path class="st4" d="M759.9,313.7C712.5,296.7,656.7,287,597,287c-59.7,0-115.5,9.8-162.9,26.8c42.5-27.2,99.5-44,162.2-44.2
	c0.2,0,0.5,0,0.7,0c0.2,0,0.5,0,0.7,0C660.3,269.8,717.3,286.5,759.9,313.7z"/>
<path class="st5" d="M540.3,430.9c0,35.6-21.7,65.6-51.3,74.8c-6.1,1.9-12.5,2.9-19.1,2.9c-36.2,0-66-30-70-68.7c-0.3-3-0.5-6-0.5-9
	c0-42.9,31.5-77.7,70.5-77.7C508.7,353.2,540.3,388,540.3,430.9z"/>
<ellipse class="st6" cx="470.1" cy="401.2" rx="34.3" ry="32.2"/>
<ellipse class="st5" cx="565.4" cy="499.3" rx="13.3" ry="9.3"/>
<path class="st7" d="M645.7,477.6h-96.1c10-10.6,27.8-17.7,48.1-17.7v0l0,0C617.9,459.9,635.7,467,645.7,477.6z"/>
<path class="st4" d="M591.8,622c1.7,0,3.4,0,5,0L591.8,622L591.8,622z"/>
<path class="st4" d="M597.2,542.8c-0.1,0-0.2,0-0.3,0c-0.9,0.1-2.7,0.1-5,0.2v-0.2C591.9,542.8,595.3,542.8,597.2,542.8z"/>
<path class="st4" d="M829.1,480.3c-20,83-104.6,141.8-230.7,141.8h-1.5c-1.7,0-3.4,0-5,0c-123.3-1.5-206-59.8-225.6-141.7
	c9.3-19.7,20.9-33.2,33.6-40.4c4,38.7,33.8,68.7,70,68.7c6.6,0,13-1,19.1-2.9c4.9,7.9,10,14.8,15.5,19.9c3.4,3.1,7.8,5.7,12.8,7.8
	c13.3,5.6,30.9,8.1,46.3,9.1c2.9,0.2,5.7,0.3,8.4,0.4c8.2,0.3,15.3,0.2,19.9,0.1c2.4-0.1,4.1-0.1,5-0.2c0.1,0,0.2,0,0.3,0
	c0,0,0,0,0.1,0h0.4c0.4,0,0.7,0,0.8,0c2.7,0.1,12.5,0.5,24.9,0.1c2.7-0.1,5.5-0.2,8.4-0.4c15.4-1,33-3.5,46.3-9.1
	c5-2.1,9.4-4.7,12.8-7.8c5.5-5,10.6-12,15.5-19.9c6.1,1.9,12.5,2.9,19.1,2.9c36.2,0,66-30,70-68.7
	C808.1,447.1,819.7,460.6,829.1,480.3z"/>
<path class="st4" d="M597.6,542.8L597.6,542.8l-0.4,0C597.5,542.8,597.6,542.8,597.6,542.8z"/>
<path class="st5" d="M655,430.9c0,35.6,21.7,65.6,51.3,74.8c6.1,1.9,12.5,2.9,19.1,2.9c36.2,0,66-30,70-68.7c0.3-3,0.5-6,0.5-9
	c0-42.9-31.5-77.7-70.5-77.7C686.6,353.2,655,388,655,430.9z"/>
<ellipse class="st6" cx="725.2" cy="401.2" rx="34.3" ry="32.2"/>
<ellipse class="st5" cx="629.9" cy="499.3" rx="13.3" ry="9.3"/>
<g>
	<path class="st8" d="M642.5,547.5c-16.3,101.9-44.8,18.7-44.8,18.7s-28.3,82.2-44.8-18.7l44.8-13.9L642.5,547.5z"/>
	<path d="M597.6,533.6l44.8,13.9c-6.2,38.7-14.1,50.7-21.6,50.7c-12.2,0-23.2-32-23.2-32s-10.9,31.6-23.1,31.6
		c-7.5,0-15.5-11.9-21.8-50.3L597.6,533.6 M597.6,516.4l-4.9,1.5l-44.8,13.9l-13.6,4.2l2.3,14.1c3.2,19.7,7.1,34.1,11.8,44
		c7.9,16.6,18.6,20.1,26.2,20.1c10.2,0,17.8-6.2,23-12.6c5.2,6.6,12.9,13.1,23.3,13.1c7.6,0,18.3-3.5,26.2-20.3
		c4.7-10,8.5-24.4,11.7-44.3l2.2-14l-13.6-4.2l-44.8-13.9L597.6,516.4L597.6,516.4z"/>
</g>
<path d="M546,545.4c-3.3,0-6.4-0.3-9.3-0.8c-15.6-2.9-23.7-12.9-30.1-22.1c-2.6-3.7-1.7-8.8,2-11.4c3.7-2.6,8.8-1.7,11.4,2
	c9.5,13.5,18.4,26.3,72.9,2.9c3-1.3,6.4-1.3,9.4,0c54.5,23.4,63.4,10.6,72.9-2.9c2.6-3.7,7.7-4.6,11.4-2c3.7,2.6,4.6,7.7,2,11.4
	c-6.4,9.2-14.6,19.2-30.1,22.1c-14.6,2.7-34-1.3-60.9-12.7C576.1,541,559.3,545.4,546,545.4z"/>
<circle class="st9" cx="123.5" cy="158.1" r="18.8"/>
<circle class="st10" cx="182.5" cy="158.1" r="18.8"/>
<circle class="st11" cx="241.6" cy="158.1" r="18.8"/>
<g>
	<path class="st6" d="M140.1,268.7c2.7,0,5-0.3,6.7-0.9c3.2-1.2,4.9-3.3,4.9-6.5c0-1.8-0.8-3.3-2.4-4.3c-1.6-1-4.1-1.9-7.6-2.6
		l-5.9-1.3c-5.8-1.3-9.8-2.7-12-4.3c-3.8-2.6-5.6-6.6-5.6-12c0-5,1.8-9.1,5.4-12.4c3.6-3.3,9-4.9,16-4.9c5.9,0,10.9,1.6,15,4.7
		c4.1,3.1,6.3,7.6,6.5,13.5h-11.2c-0.2-3.3-1.7-5.7-4.4-7.1c-1.8-0.9-4.1-1.4-6.8-1.4c-3,0-5.4,0.6-7.2,1.8
		c-1.8,1.2-2.7,2.9-2.7,5.1c0,2,0.9,3.5,2.6,4.5c1.1,0.7,3.5,1.4,7.3,2.3l9.6,2.3c4.2,1,7.4,2.4,9.5,4c3.3,2.6,5,6.4,5,11.4
		c0,5.1-1.9,9.3-5.8,12.7c-3.9,3.4-9.4,5-16.5,5c-7.3,0-13-1.7-17.1-5s-6.2-7.9-6.2-13.7h11.1c0.4,2.5,1,4.4,2.1,5.7
		C132.3,267.6,135.5,268.7,140.1,268.7z"/>
	<path class="st12" d="M199,237.5c3.2,2.1,5.1,5.6,5.6,10.7h-10.8c-0.2-1.4-0.5-2.5-1.2-3.3c-1.2-1.5-3.2-2.2-6-2.2
		c-2.3,0-4,0.4-5,1.1c-1,0.7-1.5,1.6-1.5,2.6c0,1.2,0.5,2.1,1.6,2.7c1.1,0.6,4.8,1.6,11.2,3c4.3,1,7.5,2.5,9.6,4.6
		c2.1,2.1,3.2,4.6,3.2,7.7c0,4.1-1.5,7.4-4.6,10c-3,2.6-7.7,3.9-14.1,3.9c-6.5,0-11.2-1.4-14.3-4.1c-3.1-2.7-4.6-6.2-4.6-10.4H179
		c0.2,1.9,0.7,3.3,1.5,4.1c1.3,1.4,3.8,2.2,7.4,2.2c2.1,0,3.8-0.3,5-0.9s1.9-1.6,1.9-2.8c0-1.2-0.5-2.1-1.5-2.8
		c-1-0.6-4.7-1.7-11.2-3.2c-4.7-1.2-7.9-2.6-9.9-4.3c-1.9-1.7-2.9-4.2-2.9-7.4c0-3.8,1.5-7.1,4.5-9.8c3-2.7,7.2-4.1,12.6-4.1
		C191.5,234.4,195.7,235.5,199,237.5z"/>
	<path class="st12" d="M242,237.5c3.2,2.1,5.1,5.6,5.6,10.7h-10.8c-0.2-1.4-0.5-2.5-1.2-3.3c-1.2-1.5-3.2-2.2-6-2.2
		c-2.3,0-4,0.4-5,1.1c-1,0.7-1.5,1.6-1.5,2.6c0,1.2,0.5,2.1,1.6,2.7c1.1,0.6,4.8,1.6,11.2,3c4.3,1,7.5,2.5,9.6,4.6
		c2.1,2.1,3.2,4.6,3.2,7.7c0,4.1-1.5,7.4-4.6,10c-3,2.6-7.7,3.9-14.1,3.9c-6.5,0-11.2-1.4-14.3-4.1c-3.1-2.7-4.6-6.2-4.6-10.4H222
		c0.2,1.9,0.7,3.3,1.5,4.1c1.3,1.4,3.8,2.2,7.4,2.2c2.1,0,3.8-0.3,5-0.9s1.9-1.6,1.9-2.8c0-1.2-0.5-2.1-1.5-2.8
		c-1-0.6-4.7-1.7-11.2-3.2c-4.7-1.2-7.9-2.6-9.9-4.3c-1.9-1.7-2.9-4.2-2.9-7.4c0-3.8,1.5-7.1,4.5-9.8c3-2.7,7.2-4.1,12.6-4.1
		C234.6,234.4,238.8,235.5,242,237.5z"/>
	<path class="st12" d="M285,237.5c3.2,2.1,5.1,5.6,5.6,10.7h-10.8c-0.2-1.4-0.5-2.5-1.2-3.3c-1.2-1.5-3.2-2.2-6-2.2
		c-2.3,0-4,0.4-5,1.1c-1,0.7-1.5,1.6-1.5,2.6c0,1.2,0.5,2.1,1.6,2.7c1.1,0.6,4.8,1.6,11.2,3c4.3,1,7.5,2.5,9.6,4.6
		c2.1,2.1,3.2,4.6,3.2,7.7c0,4.1-1.5,7.4-4.6,10c-3,2.6-7.7,3.9-14.1,3.9c-6.5,0-11.2-1.4-14.3-4.1c-3.1-2.7-4.6-6.2-4.6-10.4H265
		c0.2,1.9,0.7,3.3,1.5,4.1c1.3,1.4,3.8,2.2,7.4,2.2c2.1,0,3.8-0.3,5-0.9s1.9-1.6,1.9-2.8c0-1.2-0.5-2.1-1.5-2.8
		c-1-0.6-4.7-1.7-11.2-3.2c-4.7-1.2-7.9-2.6-9.9-4.3c-1.9-1.7-2.9-4.2-2.9-7.4c0-3.8,1.5-7.1,4.5-9.8c3-2.7,7.2-4.1,12.6-4.1
		C277.6,234.4,281.8,235.5,285,237.5z"/>
	<path class="st12" d="M328,237.5c3.2,2.1,5.1,5.6,5.6,10.7h-10.8c-0.2-1.4-0.5-2.5-1.2-3.3c-1.2-1.5-3.2-2.2-6-2.2
		c-2.3,0-4,0.4-5,1.1c-1,0.7-1.5,1.6-1.5,2.6c0,1.2,0.5,2.1,1.6,2.7c1.1,0.6,4.8,1.6,11.2,3c4.3,1,7.5,2.5,9.6,4.6
		c2.1,2.1,3.2,4.6,3.2,7.7c0,4.1-1.5,7.4-4.6,10c-3,2.6-7.7,3.9-14.1,3.9c-6.5,0-11.2-1.4-14.3-4.1c-3.1-2.7-4.6-6.2-4.6-10.4h10.9
		c0.2,1.9,0.7,3.3,1.5,4.1c1.3,1.4,3.8,2.2,7.4,2.2c2.1,0,3.8-0.3,5-0.9s1.9-1.6,1.9-2.8c0-1.2-0.5-2.1-1.5-2.8
		c-1-0.6-4.7-1.7-11.2-3.2c-4.7-1.2-7.9-2.6-9.9-4.3c-1.9-1.7-2.9-4.2-2.9-7.4c0-3.8,1.5-7.1,4.5-9.8c3-2.7,7.2-4.1,12.6-4.1
		C320.6,234.4,324.8,235.5,328,237.5z"/>
	<path class="st6" d="M363.8,268.7c2.7,0,5-0.3,6.7-0.9c3.2-1.2,4.9-3.3,4.9-6.5c0-1.8-0.8-3.3-2.4-4.3c-1.6-1-4.1-1.9-7.6-2.6
		l-5.9-1.3c-5.8-1.3-9.8-2.7-12-4.3c-3.8-2.6-5.6-6.6-5.6-12c0-5,1.8-9.1,5.4-12.4c3.6-3.3,9-4.9,16-4.9c5.9,0,10.9,1.6,15,4.7
		c4.1,3.1,6.3,7.6,6.5,13.5h-11.2c-0.2-3.3-1.7-5.7-4.4-7.1c-1.8-0.9-4.1-1.4-6.8-1.4c-3,0-5.4,0.6-7.2,1.8
		c-1.8,1.2-2.7,2.9-2.7,5.1c0,2,0.9,3.5,2.6,4.5c1.1,0.7,3.5,1.4,7.3,2.3l9.6,2.3c4.2,1,7.4,2.4,9.5,4c3.3,2.6,5,6.4,5,11.4
		c0,5.1-1.9,9.3-5.8,12.7c-3.9,3.4-9.4,5-16.5,5c-7.3,0-13-1.7-17.1-5s-6.2-7.9-6.2-13.7H352c0.4,2.5,1,4.4,2.1,5.7
		C356,267.6,359.2,268.7,363.8,268.7z"/>
	<path class="st6" d="M428.4,276.8v-24.9h-21.8v24.9h-11.5v-55.7h11.5v21.2h21.8v-21.2h11.6v55.7H428.4z"/>
</g>
<g>
	<path class="st6" d="M154.6,333.1h-11c-0.2-1.5-0.7-2.9-1.5-4.2c-1.2-1.7-3.1-2.5-5.6-2.5c-3.6,0-6.1,1.8-7.4,5.4
		c-0.7,1.9-1.1,4.5-1.1,7.6c0,3,0.4,5.5,1.1,7.3c1.3,3.4,3.7,5.1,7.3,5.1c2.5,0,4.3-0.7,5.4-2s1.7-3.1,1.9-5.3h11
		c-0.3,3.3-1.4,6.4-3.5,9.3c-3.4,4.7-8.4,7.1-15,7.1c-6.6,0-11.5-2-14.6-5.9c-3.1-3.9-4.7-9-4.7-15.3c0-7.1,1.7-12.6,5.2-16.5
		c3.4-3.9,8.2-5.9,14.3-5.9c5.2,0,9.4,1.2,12.7,3.5C152.1,323.2,154,327.3,154.6,333.1z"/>
	<path class="st6" d="M196.4,323.6c3.5,4.4,5.2,9.5,5.2,15.4c0,6-1.7,11.2-5.2,15.5c-3.5,4.3-8.8,6.4-15.8,6.4s-12.4-2.1-15.8-6.4
		c-3.5-4.3-5.2-9.5-5.2-15.5c0-5.9,1.7-11.1,5.2-15.4c3.5-4.4,8.8-6.5,15.8-6.5S192.9,319.2,196.4,323.6z M180.5,326.2
		c-3.1,0-5.6,1.1-7.3,3.3c-1.7,2.2-2.5,5.4-2.5,9.5c0,4.1,0.8,7.3,2.5,9.6c1.7,2.2,4.1,3.4,7.3,3.4c3.1,0,5.6-1.1,7.3-3.4
		c1.7-2.2,2.5-5.4,2.5-9.6c0-4.1-0.8-7.3-2.5-9.5C186.1,327.3,183.7,326.2,180.5,326.2z"/>
	<path class="st6" d="M228.7,326.3c-3.7,0-6.2,1.5-7.5,4.6c-0.7,1.6-1.1,3.7-1.1,6.3v22.3h-10.7v-41.1h10.4v6
		c1.4-2.1,2.7-3.6,3.9-4.6c2.2-1.7,5-2.5,8.4-2.5c4.3,0,7.7,1.1,10.4,3.3c2.7,2.2,4.1,5.9,4.1,11.1v27.7h-11v-25
		c0-2.2-0.3-3.8-0.9-5C233.7,327.4,231.6,326.3,228.7,326.3z"/>
	<path class="st6" d="M275.8,303.5v8.8c-0.6-0.1-1.6-0.1-3-0.2c-1.4,0-2.4,0.3-2.9,0.9c-0.5,0.7-0.8,1.4-0.8,2.2v3.5h7.1v7.6H269
		v33.2h-10.7v-33.2h-6v-7.6h5.9v-2.6c0-4.4,0.7-7.4,2.2-9.1c1.6-2.5,5.3-3.7,11.3-3.7c0.7,0,1.3,0,1.9,0.1
		C274.1,303.4,274.9,303.5,275.8,303.5z"/>
	<path class="st6" d="M293.4,303.5v9.9h-10.9v-9.9H293.4z M293.4,318.4v41.2h-10.9v-41.2H293.4z"/>
	<path class="st6" d="M315.4,366.8c1.2,1,3.1,1.5,5.9,1.5c3.9,0,6.5-1.3,7.8-3.9c0.9-1.7,1.3-4.5,1.3-8.4v-2.6c-1,1.8-2.1,3.1-3.3,4
		c-2.1,1.6-4.9,2.5-8.3,2.5c-5.3,0-9.5-1.9-12.7-5.6c-3.2-3.7-4.7-8.7-4.7-15.1c0-6.1,1.5-11.3,4.6-15.4c3-4.2,7.4-6.3,13-6.3
		c2.1,0,3.9,0.3,5.4,0.9c2.6,1.1,4.7,3.1,6.3,6v-5.9H341v39.1c0,5.3-0.9,9.3-2.7,12c-3.1,4.6-9,6.9-17.7,6.9c-5.3,0-9.6-1-12.9-3.1
		c-3.3-2.1-5.2-5.1-5.5-9.3H314C314.3,365.3,314.8,366.2,315.4,366.8z M313.6,345.5c1.5,3.5,4.1,5.2,7.9,5.2c2.5,0,4.6-1,6.4-2.9
		c1.7-1.9,2.6-4.9,2.6-9.1c0-3.9-0.8-6.9-2.5-8.9c-1.6-2-3.9-3.1-6.6-3.1c-3.8,0-6.4,1.8-7.8,5.3c-0.8,1.9-1.1,4.2-1.1,7
		C312.4,341.5,312.8,343.6,313.6,345.5z"/>
</g>
<g>
	<g>
		<path class="st6" d="M144.9,421.7l-31.8-11.2v-10.5l44.5,17v9.6l-44.5,16.9v-10.5L144.9,421.7z"/>
	</g>
</g>
</svg>
